<svg xmlns="http://www.w3.org/2000/svg" viewBox="0 0 453.8 453.8"><defs><style>.cls-1{fill:#454f44;}.cls-2,.cls-3,.cls-4,.cls-6{fill:#fff;}.cls-3,.cls-8{stroke:#454f44;}.cls-3,.cls-4,.cls-6,.cls-7,.cls-8{stroke-miterlimit:10;}.cls-3,.cls-7,.cls-8{stroke-width:6px;}.cls-4,.cls-6{stroke:#231815;}.cls-5{fill:#e7cd77;}.cls-6{stroke-width:3px;}.cls-7,.cls-8{fill:none;}.cls-7{stroke:#474c56;}</style></defs><g id="レイヤー_1" data-name="レイヤー 1"><circle class="cls-1" cx="226.9" cy="226.9" r="226.9"/><circle class="cls-2" cx="226.9" cy="226.9" r="207.16"/></g><g id="レイヤー_2" data-name="レイヤー 2"><path class="cls-3" d="M173.64,67.38h0a40,40,0,0,1,29.77,28.38l3,10.8-17.55,98.25L214,227.61a240.9,240.9,0,0,0,33.57,17.77,242,242,0,0,0,30.76,10.89,184.32,184.32,0,0,0,71.91,1.09,182.73,182.73,0,0,0,47.38-15.71l24.57-22.32a200.55,200.55,0,0,1-41.82,67c-52.92,56.49-122.73,82.41-180.85,63.55-6.07-2-62.11-24.79-77.92-70.83-12.09-35.22,15.84-77.24,17.54-80.12a125.91,125.91,0,0,1,9.25-13.47l11.22-16.36,19.89-53.21c-7.92-5.46-16.68-11-26.32-16.38a325.37,325.37,0,0,0-50.45-22.73l54,1.68Z" transform="translate(-28.9 -23.1)"/><path class="cls-4" d="M292.06,132.56" transform="translate(-28.9 -23.1)"/><path class="cls-5" d="M228.12,240.1l102.5-136.87a2.1,2.1,0,0,1,1.54-.89l105.78-6c2.24-.13,3.26,3.57,1.46,5.3l-73.89,71.23a2.23,2.23,0,0,1-.5.37L230.63,244.87C228.34,246.09,226.4,242.4,228.12,240.1Z" transform="translate(-28.9 -23.1)"/><path class="cls-4" d="M469.84,82.85" transform="translate(-28.9 -23.1)"/><path class="cls-6" d="M319.09,144.26" transform="translate(-28.9 -23.1)"/><path class="cls-3" d="M215.06,256.11,257.43,90.44A2.06,2.06,0,0,1,258.51,89L354,43c2-1,4.38,2.06,3.38,4.35l-41,94.07a2.34,2.34,0,0,1-.32.53L219.21,259.56C217.56,261.56,214.35,258.89,215.06,256.11Z" transform="translate(-28.9 -23.1)"/><path class="cls-7" d="M144.64,313.89" transform="translate(-28.9 -23.1)"/><path class="cls-7" d="M349.84,333.46" transform="translate(-28.9 -23.1)"/><path class="cls-7" d="M185.4,341.93" transform="translate(-28.9 -23.1)"/><path class="cls-8" d="M37.64,192.69A90,90,0,0,1,48.8,210.08C60,233,56.65,251.37,64,253.71c2.74.87,7.68-.27,17-11.9A89.37,89.37,0,0,0,86.27,265c4.13,11.11,7.56,20.3,16.52,25,9.19,4.82,19.29,2.33,23.89.81" transform="translate(-28.9 -23.1)"/><path class="cls-8" d="M357.36,308.13c2.35,1.81,8.53,6,16,4.95,7.17-1,12.06-6.43,16.28-11.1a62.91,62.91,0,0,0,5.55-7.4,145.07,145.07,0,0,0,8.87-14.8c1.43,8.15,6,14.17,11.47,15.17,5.28.95,9.91-3.25,13.32-6.29,2.7-2.41,6-6.26,9.25-14.06,3.63-8.79,4.6-16.51,5.18-23.67a237.36,237.36,0,0,0,0-37.35c1.48.83,5.91,1.56,10.34,1.46a59.57,59.57,0,0,1,11.09.74h0" transform="translate(-28.9 -23.1)"/><path class="cls-7" d="M444,100.36" transform="translate(-28.9 -23.1)"/><path class="cls-1" d="M116.85,345.46a32.93,32.93,0,0,0,7.83,7.4,28.53,28.53,0,0,0,9.69,4.22,28.2,28.2,0,0,0,10.39.38,30,30,0,0,0,9.75-3.29l1.78-1,1,1.89,4.56,8.61-.24-.39a37.56,37.56,0,0,0,10.27,8.51,49.12,49.12,0,0,0,6,2.85,43,43,0,0,0,6.26,1.91,39.75,39.75,0,0,0,13.22.78,52.05,52.05,0,0,0,13.46-3.5l.32.51a32.51,32.51,0,0,1-12.92,7.2,35.09,35.09,0,0,1-7.51,1.34c-.64.06-1.28,0-1.92.06a15.5,15.5,0,0,1-1.93-.05l-1.93-.12c-.65-.05-1.28-.18-1.92-.28a33.32,33.32,0,0,1-7.46-2.07,38,38,0,0,1-6.74-3.71,47.88,47.88,0,0,1-10.88-10.57l-.17-.22-.07-.17-4-8.86,2.78.93a32.3,32.3,0,0,1-11.23,3,30,30,0,0,1-11.43-1.3,30.76,30.76,0,0,1-10-5.36,32.13,32.13,0,0,1-7.38-8.36Z" transform="translate(-28.9 -23.1)"/><path class="cls-1" d="M390.25,348.71a44.68,44.68,0,0,1-7.14,12.14,35.72,35.72,0,0,1-11.09,9c-.54.27-1.07.57-1.63.81l-1.69.68A16.69,16.69,0,0,1,367,372c-.58.17-1.16.38-1.75.5a31.26,31.26,0,0,1-7.27,1,35.67,35.67,0,0,1-14.36-2.84l2.82-1.29-3.53,13.12,0,.17-.11.23a62,62,0,0,1-10.8,15.53,40.14,40.14,0,0,1-16.15,10.39l-2.33.73c-.78.22-1.58.35-2.38.52s-1.58.35-2.39.43-1.6.19-2.41.26a38.39,38.39,0,0,1-9.59-.58,38.86,38.86,0,0,1-16.91-7.69l.31-.52a52.92,52.92,0,0,0,17.11,4,39.31,39.31,0,0,0,8.48-.5l2.06-.4c.69-.13,1.35-.38,2-.55s1.35-.34,2-.58l2-.74,1-.36.95-.46,1.88-.89c.61-.33,1.21-.69,1.82-1a18.09,18.09,0,0,0,1.79-1.08l1.76-1.15,1.69-1.27a17.47,17.47,0,0,0,1.66-1.32c.53-.47,1.1-.9,1.62-1.38a51.69,51.69,0,0,0,10.64-13.45l-.16.4,4.12-12.95.73-2.29,2.09,1a32.53,32.53,0,0,0,12.7,3.23,29.73,29.73,0,0,0,12.95-2.47,33.86,33.86,0,0,0,11-7.81,45.71,45.71,0,0,0,7.79-11.32Z" transform="translate(-28.9 -23.1)"/></g></svg>