<svg id="レイヤー_1" data-name="レイヤー 1" xmlns="http://www.w3.org/2000/svg" viewBox="0 0 253.27 338.25"><defs><style>.cls-1,.cls-2,.cls-3{fill:#fff;stroke-miterlimit:10;}.cls-1,.cls-2{stroke:#373f00;}.cls-2{stroke-width:2px;}.cls-3{stroke:#585955;stroke-width:10px;}</style></defs><path class="cls-1" d="M31.39,150.54" transform="translate(-60.73 -23)"/><path class="cls-2" d="M103,292c3,21,14,47.08,47,48,36,1,47.2-5.32,56-28" transform="translate(-60.73 -23)"/><path class="cls-2" d="M168.07,281.07" transform="translate(-60.73 -23)"/><path class="cls-2" d="M261,207" transform="translate(-60.73 -23)"/><path class="cls-3" d="M270.9,207.09a4.63,4.63,0,0,0-1.48,2.13c-.7,2.29.89,4.62,1.21,5.12C274,219.62,282.22,249.19,282,256c-.45,13.62-3.11,38.84-16.09,58.92A86.6,86.6,0,0,1,249,334c-15.23,12.81-30.69,16.9-39,19a114.48,114.48,0,0,1-44,2c-39.37-5.93-84.13-34.14-96-77.49C60,241,67.7,219.19,91.85,183.59c23.19-34.17,125.88-146.17,134-155a1.73,1.73,0,0,1,1.28-.56h38.56a1.74,1.74,0,0,1,1.73,1.53l3.13,25.87a1.74,1.74,0,0,1-.28,1.17L246.52,93a1.74,1.74,0,0,0,1.88,2.65L298,83.21a1.75,1.75,0,0,1,2.17,1.69v40.34a1.76,1.76,0,0,1-.72,1.41L279.73,141a1.74,1.74,0,0,0,1.1,3.15L307.18,143a1.74,1.74,0,0,1,1.82,1.74v28.37a1.75,1.75,0,0,1-.6,1.32l-37.76,33L271,207Z" transform="translate(-60.73 -23)"/><path class="cls-3" d="M269,212l-.95-.69a131.11,131.11,0,0,0-21.3-12.6L215,220l10.86-32.86c-2.55-1.4-37.42-17.64-68.84-.82-27.27,14.6-44.4,50-31.4,79.93,13.88,32,57.16,46.18,80.34,31.78,12-7.42,24.28-26,16.84-42.34-6.19-13.57-24.18-21.55-42.7-16.69" transform="translate(-60.73 -23)"/></svg>