<svg id="レイヤー_1" data-name="レイヤー 1" xmlns="http://www.w3.org/2000/svg" viewBox="0 0 456.81 330.37"><defs><style>.cls-1{fill:#6a6969;}.cls-2{fill:#e4e4e5;}</style></defs><path class="cls-1" d="M23.49,141.5c-2.13-.27-2.62-3.53-.67-4.54,4.71-2.45,9.62-5.2,14.69-8.3,7.32-4.48,13.94-9.06,19.86-13.51a2.44,2.44,0,0,0,.89-1.54C62.84,87.23,85.77,69.82,108.77,75c23.49,5.25,38.94,32.2,33.44,59a2.46,2.46,0,0,1-.4.94,253.14,253.14,0,0,0-35.54,76.37,269.93,269.93,0,0,0-9.73,67.14c0,2,2,3.14,3.41,1.92C209.27,185.9,287.78,188.6,315.77,201c72.62,32.15,147.36,81.84,161.61,91.47a2.58,2.58,0,0,1,.34,3.81L374.27,403.8a2,2,0,0,1-1.43.63H100.5a1.85,1.85,0,0,1-.94-.24,82,82,0,0,1-27.09-25,96.44,96.44,0,0,1-15.54-39.11,285.9,285.9,0,0,1-1.55-73.84,278.14,278.14,0,0,1,18.26-73.4c6.19-14.11,11.78-25,15.92-32.52C92.47,155,94.81,151,93.45,148c-1.78-3.93-8.31-2.9-22.92-3.08-4.68,0-12-.53-26.67-1.48C38.73,143.1,31.81,142.54,23.49,141.5Z" transform="translate(-21.6 -74.06)"/><path class="cls-2" d="M144.57,323.19a19,19,0,0,1-7.71,1.38c-7.94,0-14.35-5.15-14.35-15.61,0-10,6.2-16.18,15.25-16.18a15.37,15.37,0,0,1,6.81,1.26l-.9,2.84a13.34,13.34,0,0,0-5.83-1.26c-7,0-11.8,4.7-11.8,13.22,0,8.11,4.38,12.89,11.59,12.89a15.31,15.31,0,0,0,6.21-1.26Z" transform="translate(-21.6 -74.06)"/><path class="cls-2" d="M174.16,308.39c0,10.87-6.08,16.22-13.38,16.22-7.66,0-13.09-6-13.09-15.69,0-10.06,5.72-16.18,13.46-16.18C169.05,292.74,174.16,299.07,174.16,308.39Zm-22.94.45c0,6.56,3.4,13,9.69,13s9.73-6.2,9.73-13.26c0-6.2-3-13-9.65-13C154.18,295.54,151.22,302.27,151.22,308.84Z" transform="translate(-21.6 -74.06)"/><path class="cls-2" d="M208.42,324.12H205.1l-.77-13.91c-.25-4.41-.57-10.13-.53-13.29h-.12c-1,3.48-2.27,7.29-3.77,11.59L194.39,324h-2.47l-5.15-15.16c-1.5-4.46-2.67-8.36-3.52-11.92h-.13c-.08,3.77-.32,8.88-.6,13.62l-.86,13.58h-3.2l2.15-30.89h4.14l5.43,15.69c1.3,3.85,2.31,7.13,3.12,10.34h.12c.77-3.13,1.83-6.37,3.2-10.34l5.64-15.69h4.22Z" transform="translate(-21.6 -74.06)"/><path class="cls-2" d="M214.46,293.23h3.37v30.89h-3.37Z" transform="translate(-21.6 -74.06)"/><path class="cls-2" d="M246.53,324.12h-3.36l-9.85-16.26a94.57,94.57,0,0,1-5.56-10.29l-.16,0c.28,3.93.32,7.54.32,12.89v13.62h-3.16V293.23h3.53l10,16.26a94.28,94.28,0,0,1,5.39,10.09l.09,0c-.33-4.3-.41-8-.41-12.85V293.23h3.2Z" transform="translate(-21.6 -74.06)"/><path class="cls-2" d="M275.44,322.86a25.15,25.15,0,0,1-8.8,1.59c-12.12,0-15-9.05-15-15.57,0-9.41,6.12-15.94,15.81-15.94a17.93,17.93,0,0,1,7.14,1.3l-.89,2.8a14.57,14.57,0,0,0-6.33-1.26c-7.3,0-12.2,4.7-12.2,12.89,0,8.36,4.66,13,11.72,13a11.93,11.93,0,0,0,5.23-.89v-9.9h-6.25v-2.71h9.57Z" transform="translate(-21.6 -74.06)"/><path class="cls-2" d="M304.63,297a10.47,10.47,0,0,0-5.43-1.42c-4.3,0-5.92,2.63-5.92,4.86,0,3,1.86,4.59,6,6.33,5,2.11,7.54,4.66,7.54,9.08,0,4.91-3.57,8.68-10.22,8.68a14.22,14.22,0,0,1-7.38-1.95l.94-2.8a12.53,12.53,0,0,0,6.65,1.91c4.13,0,6.56-2.23,6.56-5.56,0-3-1.66-4.9-5.67-6.52-4.66-1.75-7.83-4.46-7.83-8.72,0-4.7,3.81-8.15,9.45-8.15a12.51,12.51,0,0,1,6.32,1.46Z" transform="translate(-21.6 -74.06)"/><path class="cls-2" d="M336.9,308.39c0,10.87-6.08,16.22-13.38,16.22-7.66,0-13.09-6-13.09-15.69,0-10.06,5.72-16.18,13.46-16.18C331.79,292.74,336.9,299.07,336.9,308.39Zm-22.94.45c0,6.56,3.4,13,9.69,13s9.73-6.2,9.73-13.26c0-6.2-3.05-13-9.65-13C316.92,295.54,314,302.27,314,308.84Z" transform="translate(-21.6 -74.06)"/><path class="cls-2" d="M366.7,308.39c0,10.87-6.08,16.22-13.38,16.22-7.66,0-13.09-6-13.09-15.69,0-10.06,5.71-16.18,13.46-16.18S366.7,299.07,366.7,308.39Zm-22.95.45c0,6.56,3.41,13,9.69,13s9.73-6.2,9.73-13.26c0-6.2-3-13-9.64-13C346.71,295.54,343.75,302.27,343.75,308.84Z" transform="translate(-21.6 -74.06)"/><path class="cls-2" d="M393.58,324.12h-3.36l-9.85-16.26a94.57,94.57,0,0,1-5.56-10.29l-.16,0c.28,3.93.32,7.54.32,12.89v13.62h-3.16V293.23h3.53l10,16.26a96.12,96.12,0,0,1,5.39,10.09l.08,0c-.32-4.3-.4-8-.4-12.85V293.23h3.2Z" transform="translate(-21.6 -74.06)"/><path class="cls-2" d="M399.42,322.05a2.42,2.42,0,1,1,4.83,0,2.42,2.42,0,1,1-4.83,0Z" transform="translate(-21.6 -74.06)"/><path class="cls-2" d="M408.26,322.05a2.44,2.44,0,0,1,2.43-2.63,2.41,2.41,0,0,1,2.39,2.63,2.41,2.41,0,1,1-4.82,0Z" transform="translate(-21.6 -74.06)"/><path class="cls-2" d="M417.1,322.05a2.44,2.44,0,0,1,2.43-2.63,2.41,2.41,0,0,1,2.39,2.63,2.41,2.41,0,1,1-4.82,0Z" transform="translate(-21.6 -74.06)"/></svg>